<mxfile host="app.diagrams.net" modified="2023-04-18T03:02:36.117Z" agent="Mozilla/5.0 (Windows NT 10.0; Win64; x64) AppleWebKit/537.36 (KHTML, like Gecko) Chrome/112.0.0.0 Safari/537.36" version="21.1.8" etag="bwfwqZn7L7VBNKXsJeua" type="github">
  <diagram name="페이지-1" id="wbr9RBuPk6cA3em6U8mI">
    <mxGraphModel>
      <root>
        <mxCell id="0" />
        <mxCell id="1" parent="0" />
      </root>
    </mxGraphModel>
  </diagram>
</mxfile>
